{"title":"IMPACT.WRESTLING.2016.08.11.HDTV.XviD-FICEK9","uid":15602770,"size":939246696,"categoryP":"video","categoryS":"tv_shows","magnet":"?xt=urn:btih:1fb018a96f0c07caaefdcdff303aea7cb5b09c10&amp;dn=IMPACT.WRESTLING.2016.08.11.HDTV.XviD-FICEK9&amp;tr=udp%3A%2F%2Ftracker.leechers-paradise.org%3A6969&amp;tr=udp%3A%2F%2Fzer0day.ch%3A1337&amp;tr=udp%3A%2F%2Fopen.demonii.com%3A1337&amp;tr=udp%3A%2F%2Ftracker.coppersurfer.tk%3A6969&amp;tr=udp%3A%2F%2Fexodus.desync.com%3A6969","seeders":2,"leechers":0,"uploader":"FICEK9","files":2,"time":1471679209,"description":"\n   General\r\n      Complete name : IMPACT.WRESTLING.2016.08.11.HDTV.XviD-FICEK9.avi\r\n      Format : AVI\r\n      Format/Info : Audio Video Interleave\r\n      File size : 896 MiB\r\n      Duration : 1h 25mn\r\n      Overall bit rate mode : Variable\r\n      Overall bit rate : 1 472 Kbps\r\n      Writing application : MEncoder sherpya-r37853+g6d7f566-5.3.1\r\n      Writing library : MPlayer\r\n   Video #0\r\n      ID : 0\r\n      Format : MPEG-4 Visual\r\n      Format profile : Advanced   \r\n      Format settings, BVOP : 2\r\n      Format settings, QPel : No\r\n      Format settings, GMC : No warppoints\r\n      Format settings, Matrix : Default (H.263)\r\n      Codec ID : XVID\r\n      Codec ID/Hint : XviD\r\n      Duration : 1h 25mn\r\n      Bit rate : 1 335 Kbps\r\n      Width : 624 pixels\r\n      Height : 352 pixels\r\n      Display aspect ratio : 16:9\r\n      Frame rate : 29.970 fps\r\n      Color space : YUV\r\n      Chroma subsampling : 4:2:0\r\n      Bit depth : 8 bits\r\n      Scan type : Progressive\r\n      Compression mode : Lossy\r\n      Bits/(Pixel*Frame) : 0.203\r\n      Stream size : 812 MiB (91%)\r\n      Writing library : XviD 64\r\n   Audio #1\r\n      ID : 1\r\n      Format : MPEG Audio\r\n      Format version : Version 1\r\n      Format profile : Layer 3\r\n      Mode : Joint stereo\r\n      Codec ID : 55\r\n      Codec ID/Hint : MP3\r\n      Duration : 1h 25mn\r\n      Bit rate mode : Variable\r\n      Bit rate : 123 Kbps\r\n      Channel(s) : 2 channels\r\n      Sampling rate : 48.0 KHz\r\n      Compression mode : Lossy\r\n      Stream size : 74.8 MiB (8%)\r\n      Alignment : Aligned on interleaves\r\n      Interleave, duration : 24 ms (0.72 video frame)\r\n      Interleave, preload duration : 493 ms","torrent":{"xt":"urn:btih:1fb018a96f0c07caaefdcdff303aea7cb5b09c10","amp;dn":"IMPACT.WRESTLING.2016.08.11.HDTV.XviD-FICEK9","amp;tr":["udp%3A%2F%2Ftracker.leechers-paradise.org%3A6969","udp%3A%2F%2Fzer0day.ch%3A1337","udp%3A%2F%2Fopen.demonii.com%3A1337","udp%3A%2F%2Ftracker.coppersurfer.tk%3A6969","udp%3A%2F%2Fexodus.desync.com%3A6969"],"infoHash":"1fb018a96f0c07caaefdcdff303aea7cb5b09c10","infoHashBuffer":{"type":"Buffer","data":[31,176,24,169,111,12,7,202,174,253,205,255,48,58,234,124,181,176,156,16]},"announce":[],"urlList":[]}}